<?xml version="1.0" encoding="UTF-8" standalone="no"?>
<!-- Created with Inkscape (http://www.inkscape.org/) -->

<svg
   xmlns:dc="http://purl.org/dc/elements/1.1/"
   xmlns:cc="http://creativecommons.org/ns#"
   xmlns:rdf="http://www.w3.org/1999/02/22-rdf-syntax-ns#"
   xmlns:svg="http://www.w3.org/2000/svg"
   xmlns="http://www.w3.org/2000/svg"
   xmlns:sodipodi="http://sodipodi.sourceforge.net/DTD/sodipodi-0.dtd"
   xmlns:inkscape="http://www.inkscape.org/namespaces/inkscape"
   version="1.1"
   width="742.81738"
   height="739.22888"
   id="svg2"
   inkscape:version="0.48.4 r9939"
   sodipodi:docname="enso_icon.svg">
  <sodipodi:namedview
     pagecolor="#ffffff"
     bordercolor="#666666"
     borderopacity="1"
     objecttolerance="10"
     gridtolerance="10"
     guidetolerance="10"
     inkscape:pageopacity="0"
     inkscape:pageshadow="2"
     inkscape:window-width="772"
     inkscape:window-height="480"
     id="namedview11"
     showgrid="false"
     inkscape:zoom="0.3192516"
     inkscape:cx="-2.9042382"
     inkscape:cy="369.61444"
     inkscape:window-x="65"
     inkscape:window-y="24"
     inkscape:window-maximized="0"
     inkscape:current-layer="layer1" />
  <defs
     id="defs4" />
  <metadata
     id="metadata7">
    <rdf:RDF>
      <cc:Work
         rdf:about="">
        <dc:format>image/svg+xml</dc:format>
        <dc:type
           rdf:resource="http://purl.org/dc/dcmitype/StillImage" />
        <dc:title />
      </cc:Work>
    </rdf:RDF>
  </metadata>
  <g
     transform="translate(-3.0707402,-1.3740069)"
     id="layer2" />
  <g
     transform="translate(-3.0707402,-1.3740069)"
     id="layer3" />
  <g
     transform="translate(-3.0707402,-1.3740069)"
     id="layer1">
    <rect
       style="fill:#2e313f;fill-opacity:0.94117647;fill-rule:nonzero"
       id="rect3026"
       y="1.3740069"
       x="3.0707402"
       ry="150.71657"
       height="739.22888"
       width="742.81738" />
    <path
       inkscape:connector-curvature="0"
       style="fill:#ffffff"
       id="path3815"
       d="m 326.36445,659.22492 c -9.2657,-1.17077 -35.33841,-7.97054 -58.20699,-15.18042 -30.06705,-9.47932 -85.31427,-39.98807 -108.4672,-59.89808 -34.40121,-29.58265 -45.8112,-41.33885 -59.828297,-61.64343 -7.547283,-10.93273 -12.004725,-20.00451 -21.118707,-42.98085 -9.860883,-24.8594 -12.786844,-36.0293 -16.719291,-63.82671 -4.184947,-29.58185 -2.336559,-57.93048 5.999575,-92.01629 3.676881,-15.03443 14.931189,-47.12827 19.99401,-57.01683 1.432159,-2.7973 5.954058,-12.69496 10.048575,-21.99477 8.851785,-20.10469 18.869415,-38.49553 24.936815,-45.77996 2.41558,-2.90009 6.85891,-8.96392 9.87409,-13.47517 11.94861,-17.87709 14.9017,-21.51012 25.14887,-30.93884 12.03411,-11.07305 13.21217,-11.92892 32.49439,-23.60769 36.03829,-21.82748 52.43374,-28.92508 74.56632,-32.279676 14.74184,-2.234373 22.56835,-1.516309 33.28309,3.053716 4.44122,1.89426 9.75755,3.45835 11.81402,3.47578 4.67382,0.0402 5.80651,1.73655 3.38369,5.0692 -4.3956,6.0463 -8.31498,12.35775 -11.77423,18.96024 -6.45052,12.31179 -9.81657,16.81877 -14.06798,18.83621 -2.6279,1.24703 -4.12969,2.78449 -4.12969,4.22785 0,3.09029 -3.38499,9.42988 -6.03323,11.29932 -1.19298,0.84211 -2.16902,2.18831 -2.16902,2.99148 0,1.75539 -5.49105,9.5179 -12.96388,18.32653 -3.007,3.54455 -6.55462,8.58908 -7.88358,11.21005 -1.32897,2.62096 -3.21896,5.43157 -4.20002,6.24574 -3.32315,2.75796 -15.63343,22.91756 -19.77547,32.38472 -5.9828,13.67447 -10.8741,29.71086 -14.31692,46.93852 -2.60368,13.02879 -3.00429,17.94768 -2.89281,35.51691 0.14067,22.17664 1.01176,28.91256 5.46901,42.29509 5.9736,17.93522 14.63513,28.4685 48.36138,58.81212 18.41485,16.56782 45.30409,32.2347 70.30511,40.96285 7.79169,2.72018 23.78754,3.21102 35.73841,1.09672 11.81874,-2.09095 32.40196,-8.79778 43.94072,-14.31763 5.47794,-2.62051 11.0432,-5.18716 12.3673,-5.70366 2.70566,-1.05547 24.90656,-16.03851 37.49441,-25.30436 14.34078,-10.55624 18.54804,-16.85373 24.97564,-37.38389 8.00537,-25.56937 10.77257,-49.73275 8.5275,-74.46097 -0.78719,-8.67017 -2.00503,-19.42752 -2.70637,-23.90526 -1.59353,-10.17422 -9.9695,-34.99618 -20.58125,-60.99203 -13.15304,-32.22119 -25.90391,-71.33601 -24.47145,-75.06891 1.83342,-4.77781 9.45681,-6.37536 30.49363,-6.39028 2.52033,-0.002 5.28734,-0.5883 6.14894,-1.3033 1.19201,-0.98935 2.54173,-0.55624 5.64644,1.81182 l 4.07995,3.11194 2.07451,-2.51566 c 4.23644,-5.13727 5.40314,-5.93828 7.75402,-5.32351 1.32043,0.34514 3.12586,0.0251 4.01207,-0.70942 0.88622,-0.73545 3.88111,-1.2197 6.6553,-1.07612 4.63915,0.24014 5.23895,-0.0693 7.47217,-3.85417 2.32933,-3.94792 2.67874,-4.10472 8.591,-3.85478 5.55777,0.23512 6.30598,-0.0301 7.61967,-2.7129 0.80121,-1.63532 3.65408,-5.28332 6.3398,-8.10654 4.01026,-4.21569 5.93567,-5.29955 10.77216,-6.06413 3.239,-0.51198 7.03254,-2.00508 8.43003,-3.31798 1.3975,-1.31294 3.61423,-2.38709 4.92602,-2.38709 2.91104,0 10.7471,5.55847 18.25565,12.94946 4.08331,4.01941 6.83645,5.70116 10.21878,6.24198 3.68226,0.58885 5.43996,1.80156 8.58949,5.92638 2.1779,2.85231 6.6146,7.46338 9.85932,10.24681 7.2239,6.19697 10.68485,10.33368 15.01781,17.95005 1.83316,3.22232 5.08075,7.83761 7.21691,10.25621 2.13615,2.4186 3.88386,4.96631 3.88386,5.66162 0,0.69525 1.84553,4.41303 4.10115,8.26168 2.25563,3.84859 4.10115,8.00973 4.10115,9.24686 0,1.23718 1.01201,4.50447 2.24894,7.26067 3.28467,7.3192 6.60661,18.78798 8.91835,30.78984 1.11722,5.80017 2.73571,12.12761 3.59671,14.061 3.11581,6.99692 7.3528,23.61467 8.06645,31.63732 0.4014,4.51125 1.50616,14.02116 2.45522,21.13307 0.94911,7.11197 1.66195,16.60319 1.58413,21.09158 -0.0779,4.48834 -0.0743,14.34546 0.01,21.90464 0.0934,8.6008 -0.48631,16.27423 -1.54881,20.50565 -0.934,3.71893 -2.05362,10.18909 -2.48798,14.37811 -2.05442,19.81184 -17.94241,79.13348 -21.83914,81.54183 -0.55092,0.34062 -1.00171,1.82196 -1.00171,3.29215 0,2.4385 -3.68512,10.98106 -9.47108,21.95494 -1.23552,2.34339 -2.24643,4.80077 -2.24643,5.46091 0,1.86447 -8.91363,17.23163 -17.12989,29.53211 -10.29264,15.40896 -22.03667,28.26162 -34.1578,37.38208 -9.02732,6.79254 -15.68201,12.10113 -38.76174,30.92116 -10.22778,8.34005 -22.86205,16.05941 -32.39477,19.7927 -3.22443,1.26281 -15.09015,7.25078 -26.36827,13.30662 -11.27812,6.05589 -26.25648,13.38589 -33.28525,16.28894 -7.02882,2.90306 -13.88356,6.31222 -15.23277,7.57582 -1.34927,1.26366 -4.03504,2.91476 -5.96843,3.66915 -11.67059,4.5537 -33.67732,11.96895 -38.66779,13.02924 -29.94226,6.36155 -54.1801,8.14367 -74.99215,5.51392 z" />
  </g>
</svg>
