<?xml version="1.0" encoding="UTF-8" standalone="no"?>
<!-- Created with Inkscape (http://www.inkscape.org/) -->

<svg
   xmlns:dc="http://purl.org/dc/elements/1.1/"
   xmlns:cc="http://creativecommons.org/ns#"
   xmlns:rdf="http://www.w3.org/1999/02/22-rdf-syntax-ns#"
   xmlns:svg="http://www.w3.org/2000/svg"
   xmlns="http://www.w3.org/2000/svg"
   version="1.1"
   width="255.57669"
   height="403.08072"
   id="svg2">
  <defs
     id="defs4" />
  <metadata
     id="metadata7">
    <rdf:RDF>
      <cc:Work
         rdf:about="">
        <dc:format>image/svg+xml</dc:format>
        <dc:type
           rdf:resource="http://purl.org/dc/dcmitype/StillImage" />
        <dc:title></dc:title>
      </cc:Work>
    </rdf:RDF>
  </metadata>
  <g
     transform="translate(-244.2589,-324.64073)"
     id="layer1">
    <g
       transform="translate(11.000484,177.42141)"
       id="g3947">
      <path
         d="m 385.71429,266.64789 a 122.85714,94.285713 0 1 1 -245.71428,0 122.85714,94.285713 0 1 1 245.71428,0 z"
         transform="matrix(0.93604654,0,0,1.219697,116.09634,-63.010307)"
         id="path2985"
         style="fill:#000000;fill-opacity:1;fill-rule:nonzero" />
      <path
         d="m 247.63783,320.42862 c 0,0 67.1417,85.81449 114.93359,85.71429 47.52509,-0.0996 113.93357,-85.71429 113.93357,-85.71429 0,0 38.64336,166.59542 -13.57143,216.72431 -23.20846,22.28132 -63.53439,-5.71031 -99.98899,-4.43486 -37.86495,1.3248 -71.89125,31.07014 -96.73531,8.72058 -54.96257,-49.44399 -18.57143,-221.01003 -18.57143,-221.01003 z"
         id="rect3940"
         style="fill:#000000;fill-opacity:1;fill-rule:nonzero;stroke:#000000;stroke-width:1.13283467;stroke-opacity:1" />
    </g>
  </g>
</svg>
